<?xml version="1.0" standalone="no"?>
<!DOCTYPE svg PUBLIC "-//W3C//DTD SVG 1.1//EN" "http://www.w3.org/Graphics/SVG/1.1/DTD/svg11.dtd" >
<svg xmlns="http://www.w3.org/2000/svg">
<metadata></metadata>
<defs>
<font id="phat_ottoregular" horiz-adv-x="1024" >
<font-face units-per-em="2048" ascent="1536" descent="-512" />
<missing-glyph horiz-adv-x="522" />
<glyph horiz-adv-x="2048" />
<glyph horiz-adv-x="2048" />
<glyph unicode="&#xd;" horiz-adv-x="682" />
<glyph unicode=" "  horiz-adv-x="522" />
<glyph unicode="&#x09;" horiz-adv-x="522" />
<glyph unicode="&#xa0;" horiz-adv-x="522" />
<glyph unicode="!" horiz-adv-x="387" d="M92 -27v215h203v-215h-203zM104 410v1024h179v-1024h-179z" />
<glyph unicode="&#x22;" horiz-adv-x="714" d="M90 1044v390h178v-390h-178zM446 1044v390h179v-390h-179z" />
<glyph unicode="#" horiz-adv-x="1378" d="M18 469l82 162h209l117 231h-209l82 162h209l125 248h180l-125 -248h285l125 248h180l-125 -248h209l-82 -162h-209l-117 -231h209l-82 -162h-209l-124 -248h-181l125 248h-284l-125 -248h-181l125 248h-209zM489 631h285l117 231h-285z" />
<glyph unicode="$" horiz-adv-x="1163" d="M39 203q99 91 125 112q149 -127 287 -168v588q-67 27 -111 48.5t-94.5 55t-80 69t-49.5 86t-20 110.5q0 139 99 233t256 111v63h178v-67q73 -12 148 -46t108.5 -55.5t109.5 -74.5l-112 -117q-124 95 -254 127v-436q56 -23 99.5 -43t93 -46.5t86 -54.5t71.5 -61.5 t56 -71.5t34.5 -82t12 -96.5t-16.5 -110.5q-21 -78 -65.5 -137.5t-105.5 -94t-126.5 -53t-138.5 -22.5v-47h-178v58q-124 21 -217 75t-195 148zM276 1147q-26 -142 175 -234v369q-69 -11 -116.5 -45t-58.5 -90zM629 135q101 15 176 66t92 127q11 48 -1 93.5t-37.5 79 t-67 65.5t-79 53t-83.5 43v-527z" />
<glyph unicode="%" horiz-adv-x="1404" d="M84 1147q0 119 84 203t203 84q118 0 202 -84.5t84 -202.5q0 -120 -84 -203.5t-202 -83.5q-119 0 -203 83.5t-84 203.5zM88 0l1012 1434h176l-1008 -1434h-180zM238 1147q0 -54 39.5 -93.5t93.5 -39.5t92.5 39.5t38.5 93.5q0 53 -38.5 92t-92.5 39t-93.5 -39t-39.5 -92z M750 287q0 118 84 202t202 84t202.5 -84t84.5 -202q0 -120 -84 -203.5t-203 -83.5q-118 0 -202 83.5t-84 203.5zM903 287q0 -54 40 -93.5t93 -39.5q55 0 93 39t38 94q0 53 -38 92t-93 39q-53 0 -93 -39.5t-40 -91.5z" />
<glyph unicode="&#x26;" horiz-adv-x="1325" d="M68 362q1 72 18 132t45 102t65.5 81t78.5 69t85 65q-19 22 -39.5 42.5t-41.5 48.5t-37.5 56.5t-28.5 65.5t-14 76q-7 98 38 175.5t124 118t174 40.5q131 0 228.5 -87t98.5 -219q0 -40 -9.5 -76t-27 -64.5t-41.5 -56t-52.5 -50t-59.5 -46t-62 -44.5l314 -332 q197 216 223 246l121 -105l-232 -250l258 -268l-118 -115q-40 39 -131.5 134t-120.5 124q-6 -5 -45.5 -45t-53 -51.5t-51 -44t-62 -45.5t-62 -32.5t-75.5 -27.5t-79 -10q-197 -8 -326 121q-46 47 -74.5 122.5t-27.5 149.5zM242 397q-4 -101 49.5 -176t134.5 -86 q46 -6 90 1.5t75 20t68.5 40.5t56 45t53 51.5l44.5 44.5l-336 350q-9 -7 -48 -33t-63 -46t-55.5 -52.5t-49 -73t-19.5 -86.5zM375 1118q1 -57 38 -117t81 -102q16 10 36 24.5t41 30t41.5 35.5t36.5 40t25.5 44t9.5 47q0 64 -42 113t-107 49q-71 0 -116 -44t-44 -120z" />
<glyph unicode="'" horiz-adv-x="354" d="M86 1044v390h178v-390h-178z" />
<glyph unicode="(" horiz-adv-x="512" d="M66 702q-5 198 67.5 430t171.5 404h172q-97 -169 -165.5 -401t-61.5 -422q6 -171 83 -416t161 -399h-177q-96 152 -172 392.5t-79 411.5z" />
<glyph unicode=")" horiz-adv-x="512" d="M23 -102q84 154 160.5 399.5t82.5 415.5q7 196 -55 414.5t-170 408.5h170q100 -174 172 -398.5t68 -420.5q-4 -173 -80 -421t-172 -398h-176z" />
<glyph unicode="*" horiz-adv-x="946" d="M59 1186l95 143l225 -135v301h178v-301l229 137l97 -145l-260 -160l213 -217l-129 -111l-238 236l-223 -240l-133 107l211 223z" />
<glyph unicode="+" horiz-adv-x="915" d="M86 707v161h279v289h178v-289h280v-161h-280v-287h-178v287h-279z" />
<glyph unicode="," horiz-adv-x="454" d="M49 -182l156 344h176l-154 -344h-178z" />
<glyph unicode="-" horiz-adv-x="811" d="M88 664v159h637v-159h-637z" />
<glyph unicode="." horiz-adv-x="380" d="M88 -16v215h203v-215h-203z" />
<glyph unicode="/" horiz-adv-x="860" d="M10 -104l652 1640h182l-656 -1640h-178z" />
<glyph unicode="0" horiz-adv-x="1062" d="M53 729q0 76 11.5 156t34.5 163.5t62.5 157.5t90 132t122.5 92t156 34q79 0 145 -26.5t113.5 -70.5t84.5 -105.5t60 -127t37.5 -139t20.5 -138.5t6 -128q0 -70 -5.5 -138.5t-20.5 -145t-37.5 -143.5t-59.5 -129.5t-84.5 -106.5t-114 -70.5t-145.5 -26.5q-76 0 -142 28 t-113.5 75t-86.5 111t-63.5 133t-41 144t-23.5 141.5t-7 127.5zM231 729q0 -76 16 -170t48.5 -194t94 -167t140.5 -67q59 0 106 29t77.5 79.5t52 110.5t33 130.5t16 130t4.5 118.5q0 63 -7 131.5t-26.5 150t-50.5 144.5t-84 105.5t-121 42.5q-79 0 -140.5 -64t-94 -159.5 t-48.5 -186t-16 -164.5z" />
<glyph unicode="1" d="M203 1128l256 306h178v-1434h-178v1169l-135 -137z" />
<glyph unicode="2" d="M51 0v152l529 520q66 67 109.5 123.5t72.5 127t24 136.5q-8 106 -84 175t-200 69q-93 0 -165 -59.5t-140 -176.5l-127 49q40 94 99.5 169t145.5 125.5t181 53.5q129 6 239 -53t172.5 -164.5t59.5 -228.5q-5 -181 -215 -402q-94 -97 -263 -259.5t-202 -194.5h686v-162 h-922z" />
<glyph unicode="3" d="M72 221l133 84q49 -69 128 -122.5t165 -53.5q119 0 197.5 77t78.5 197q0 105 -74 176.5t-186 84.5q-59 6 -168 6v161q68 0 130.5 13.5t117 41.5t87 79t32.5 118q0 94 -61.5 157t-172.5 63q-50 0 -91 -13t-75 -41.5t-49.5 -45t-44.5 -52.5l-119 78q26 44 59 82t79.5 74.5 t108.5 57.5t132 21q191 0 301.5 -101t110.5 -278q0 -103 -62.5 -186t-144.5 -119q123 -30 195.5 -136.5t72.5 -235.5q0 -199 -129.5 -319t-324.5 -120q-132 0 -240.5 68.5t-185.5 183.5z" />
<glyph unicode="4" d="M78 469v162l547 803h174v-801h143v-162h-143v-471h-178v469h-543zM276 631h345v510z" />
<glyph unicode="5" d="M47 178l117 90q40 -34 62 -51t63 -41t86 -34.5t100 -10.5q136 0 210.5 95t74.5 233q0 120 -69 201t-173 81q-89 0 -143 -41.5t-113 -134.5q-24 5 -81 18.5t-89 20.5v830h770v-162h-592v-477q51 56 104 82t136 26q193 0 312.5 -124t117.5 -316q0 -137 -55 -249.5 t-159 -178.5t-237 -66q-150 0 -249 51t-193 158z" />
<glyph unicode="6" d="M72 401q-12 244 80 447q96 220 251.5 365t405.5 251l53 -135q-93 -40 -169.5 -87t-149 -111.5t-128 -151t-89.5 -191.5q73 54 211 54q160 0 274 -105q77 -66 116.5 -172.5t20.5 -234.5q-27 -167 -149 -264t-293 -97q-100 0 -183 38t-135.5 100.5t-82.5 138t-33 155.5z M246 406q0 -112 77.5 -194.5t188.5 -82.5q118 0 194 81.5t76 195.5q0 116 -73 195t-197 79q-119 0 -192.5 -79.5t-73.5 -194.5z" />
<glyph unicode="7" d="M45 0l721 1272h-700v162h890v-164l-718 -1270h-193z" />
<glyph unicode="8" d="M55 397q0 129 63.5 234.5t186.5 150.5q-97 43 -148 128t-51 182q0 106 56 192t149 133t201 47q110 0 202.5 -45t149 -131t56.5 -196q0 -96 -52.5 -181t-146.5 -129q128 -45 190 -149.5t62 -235.5q0 -125 -62 -223.5t-166.5 -151.5t-232.5 -53q-194 0 -325.5 119.5 t-131.5 308.5zM233 397q0 -109 84 -187.5t195 -78.5q112 0 197.5 78.5t85.5 187.5q0 123 -83 195t-200 72q-116 0 -197.5 -71.5t-81.5 -195.5zM285 1092q0 -94 65.5 -153.5t161.5 -59.5q97 0 163 59.5t66 153.5q0 92 -66 151.5t-163 59.5q-95 0 -161 -59.5t-66 -151.5z" />
<glyph unicode="9" d="M76 1104q27 166 149 263t293 97q100 0 183 -38t135.5 -100t82.5 -138t33 -156q12 -243 -80 -446q-96 -220 -251 -365t-406 -252q-43 111 -53 135q93 41 169 87.5t149 111t128.5 151t89.5 191.5q-71 -53 -211 -53q-162 0 -274 104q-77 66 -116.5 173t-20.5 235zM242 1028 q0 -116 73 -195t197 -79q119 0 192.5 79.5t73.5 194.5q0 112 -77.5 194.5t-188.5 82.5q-118 0 -194 -81.5t-76 -195.5z" />
<glyph unicode=":" horiz-adv-x="356" d="M76 -16v215h203v-215h-203zM76 823v215h203v-215h-203z" />
<glyph unicode=";" horiz-adv-x="432" d="M49 -182l156 344h176l-154 -344h-178zM127 823v215h203v-215h-203z" />
<glyph unicode="&#x3c;" horiz-adv-x="950" d="M45 633l760 543l92 -129l-557 -414l555 -404l-88 -129z" />
<glyph unicode="=" d="M88 453v161h846v-161h-846zM88 862v162h846v-162h-846z" />
<glyph unicode="&#x3e;" horiz-adv-x="954" d="M45 1047l92 129l760 -543l-762 -533l-88 129l555 404z" />
<glyph unicode="?" horiz-adv-x="868" d="M74 1104q-4 73 16.5 137.5t63 114.5t112 79t156.5 29q177 0 276 -94t101 -260q1 -43 -14 -86t-45 -85.5t-49 -65t-52 -58.5q-34 -37 -52 -57.5t-42.5 -56.5t-35.5 -74t-11 -80v-137h-179v137q0 108 43 182.5t142 173.5q36 36 71 88.5t41 83.5q19 92 -35.5 160t-156.5 68 q-58 0 -100.5 -22t-63 -55.5t-29 -64t-8.5 -57.5h-149zM307 -25h203v215h-203v-215z" />
<glyph unicode="@" horiz-adv-x="1540" d="M31 713q2 206 98.5 371.5t263 257.5t369.5 92q260 0 460 -149t259 -384q19 -70 22 -152t-12.5 -165t-48.5 -151.5t-93 -113t-139 -47.5q-71 -3 -124 29.5t-85 75.5q-124 -78 -233 -78q-83 0 -153.5 30.5t-117 81.5t-78 119t-35 143t10.5 152q29 125 130 212.5t241 88.5 q38 0 73 -4.5t61.5 -11t54.5 -20.5t44.5 -23.5t41.5 -30t35 -29.5t34 -32.5t31 -30.5q-13 -24 -25.5 -51t-22.5 -54t-16 -68t-6 -91q0 -99 38.5 -172.5t98.5 -73.5q36 0 62 38.5t37.5 91.5t15 101.5t0.5 77.5q-21 239 -169 384t-392 145q-108 0 -210 -45t-177 -120 t-120.5 -177.5t-45.5 -212.5q0 -142 59 -267t165.5 -206.5t238.5 -96.5q197 -22 362 84q9 -11 41 -46t41 -46q-95 -76 -210 -110.5t-227.5 -27.5t-221.5 50q-135 53 -233 158.5t-145.5 234.5t-47.5 269zM561 707q0 -110 56 -178t151 -68q77 0 156 43q-62 182 6 416 q-70 45 -142 45q-106 0 -166.5 -73t-60.5 -185z" />
<glyph unicode="A" horiz-adv-x="1193" d="M10 0l479 1434h199l492 -1434h-179l-104 291h-610l-99 -291h-178zM340 453h504l-256 743z" />
<glyph unicode="B" d="M88 0v1434h215q70 0 126.5 -3t121 -13t113 -26.5t95.5 -45.5t77 -68.5t48.5 -97t18.5 -129.5q0 -99 -60 -173.5t-141 -105.5q273 -84 273 -371q0 -183 -146 -293q-143 -108 -370 -108h-8h-363zM266 162h150q67 0 132.5 15t122 45t91.5 81.5t35 116.5q0 68 -31.5 117.5 t-86 76t-115.5 38.5t-130 12h-168v-502zM266 825q154 0 221 13q238 46 238 204q0 51 -16 90t-49 63.5t-71 40.5t-95.5 23.5t-107.5 10t-120 2.5v-447z" />
<glyph unicode="C" horiz-adv-x="1206" d="M61 692q0 117 24.5 229t74 210t118.5 172.5t164.5 117.5t204.5 43q176 0 290.5 -86.5t188.5 -242.5q-128 -65 -143 -72q-56 108 -136.5 174t-182.5 66q-86 0 -158.5 -39t-120.5 -102t-81.5 -144.5t-48.5 -163.5t-15 -162q0 -95 29 -192.5t81.5 -180.5t136.5 -135.5 t183 -52.5q120 0 207.5 72.5t138.5 181.5l145 -45q-61 -165 -188.5 -264t-298.5 -107h-16q-108 1 -202 39q-102 42 -172.5 114t-122 167t-76 198t-24.5 205z" />
<glyph unicode="D" horiz-adv-x="1136" d="M88 0v1434h262q161 0 279.5 -35.5t187.5 -87.5q254 -192 254 -596q0 -399 -254 -586q-175 -129 -436 -129h-293zM266 162q167 0 280.5 27t188.5 94q77 67 117.5 179t40.5 253q0 282 -156 430q-78 72 -179.5 99.5t-291.5 27.5v-1110z" />
<glyph unicode="E" d="M88 0v1434h821v-162h-643v-432h592v-162h-592v-516h674v-162h-852z" />
<glyph unicode="F" horiz-adv-x="1030" d="M88 0v1434h860v-162h-682v-477h545v-162h-545v-633h-178z" />
<glyph unicode="G" horiz-adv-x="1280" d="M72 700q0 112 26 223t77 208t120 172t161 118t195 43q100 0 180 -25t139.5 -73.5t99.5 -99t81 -121.5q-13 -7 -44 -25t-55 -31.5t-40 -21.5q-27 41 -45 65.5t-52.5 61t-68.5 57.5t-85.5 36.5t-109.5 15.5q-83 0 -159 -53.5t-128.5 -139t-83.5 -194.5q-30 -105 -30 -209 v-7q1 -122 37 -229t95 -181t136.5 -116.5t159.5 -42.5q73 0 132.5 25t97.5 64t64 90t36 100q10 46 10 90v8h-330v162h508v-146q0 -103 -36 -202t-101 -178t-164 -127t-215 -48q-96 0 -187.5 35t-167 100.5t-132.5 154.5t-89 203t-32 238z" />
<glyph unicode="H" horiz-adv-x="1122" d="M88 0v1434h178v-639h592v639h178v-1434h-178v633h-592v-633h-178z" />
<glyph unicode="I" horiz-adv-x="356" d="M88 0v1434h178v-1434h-178z" />
<glyph unicode="J" horiz-adv-x="978" d="M59 162l101 76q49 -51 103.5 -80.5t126.5 -37.5q13 -1 26 -1q59 0 119 28q101 45 139.5 143.5t38.5 250.5v893h178v-848q0 -79 -5.5 -141t-19 -124t-37.5 -110.5t-61 -91t-90 -75t-123 -54.5q-70 -20 -132 -20q-11 0 -22 1q-72 4 -138 34t-116 69.5t-88 87.5z" />
<glyph unicode="K" horiz-adv-x="1085" d="M88 0v1434h178v-686l547 686h203v-2l-535 -672l527 -760h-195l-436 629l-111 -137v-492h-178z" />
<glyph unicode="L" d="M88 0v1434h178v-1272h686v-162h-864z" />
<glyph unicode="M" horiz-adv-x="1607" d="M88 0v1434h193l520 -1256l528 1256h189v-1434h-179v1047l-446 -1047h-180l-447 1053v-1053h-178z" />
<glyph unicode="N" horiz-adv-x="1198" d="M88 0v1434h191l649 -1141v1141h178v-1434h-193l-647 1137v-1137h-178z" />
<glyph unicode="O" horiz-adv-x="1314" d="M70 733q0 112 24 218.5t73 199.5t118.5 162.5t166.5 110t210 40.5q118 0 216.5 -42.5t165 -113.5t113 -166t67.5 -198t21 -211q0 -121 -21.5 -232t-68 -208.5t-114 -169t-164.5 -113t-215 -41.5q-104 0 -193 32.5t-152.5 89t-112 130.5t-77 160.5t-43 174.5t-14.5 177z M248 733q0 -79 14 -159.5t46.5 -161t79 -142.5t117.5 -100.5t157 -38.5q98 0 176 48.5t127.5 132.5t75.5 191.5t26 229.5q0 81 -14.5 160t-46 153.5t-78 131t-115 91t-151.5 34.5q-80 0 -149.5 -37t-117 -97t-81.5 -135.5t-50 -152t-16 -148.5z" />
<glyph unicode="P" horiz-adv-x="1038" d="M88 0v1434h305q125 0 225 -21t181 -67t125.5 -127.5t44.5 -194.5q0 -92 -32.5 -164.5t-86 -119t-128 -77t-154 -43t-169.5 -12.5h-131q-2 -90 -2 -229v-73q0 -63 1 -118q0 -110 -1 -188h-178zM266 770h123q80 0 147.5 12.5t127 40t93.5 79t34 122.5q0 117 -100 182.5 t-271 65.5h-154v-502z" />
<glyph unicode="Q" horiz-adv-x="1263" d="M74 588q-4 43 -4 88q0 50 5 102q10 100 37.5 198t76.5 186t112 155.5t150 107t186 39.5q97 0 179.5 -28t143 -76t107 -115.5t76 -142.5t45.5 -160q21 -106 21 -209q0 -138 -39 -271q-67 -231 -207 -362l186 -282h-191q-9 13 -60 91.5t-71 106.5q-67 -33 -155 -42 q-30 -4 -59 -4q-53 0 -99 12q-99 23 -180.5 85.5t-133.5 147.5t-83.5 179.5t-42.5 193.5zM250 657q5 -129 67.5 -267.5t151.5 -207.5q44 -34 99 -45q32 -6 59 -6q21 0 39 3q43 9 67 28l-198 289h194l133 -201q96 101 140 266q28 105 28 213q0 64 -10 129q-11 69 -29 129.5 t-49.5 120t-72 101.5t-99 68t-129.5 26q-81 0 -149.5 -46.5t-113 -119t-75.5 -160.5t-43 -171q-11 -66 -11 -122q0 -14 1 -27z" />
<glyph unicode="R" horiz-adv-x="1044" d="M88 0v1434h242q109 0 200.5 -11.5t176.5 -40t144 -73.5t94 -117q34 -70 34 -159v-5q0 -142 -92 -245.5t-252 -143.5l393 -639h-186l-377 612q-124 -4 -199 -4v-608h-178zM266 770h90q70 0 130.5 6.5t120 24.5t101.5 46.5t67.5 74.5t25.5 106q0 69 -31 117.5t-91.5 75.5 t-139.5 39t-185 12h-88v-502z" />
<glyph unicode="S" horiz-adv-x="1144" d="M39 203q99 91 125 112q218 -184 403 -184h4q117 2 211.5 56.5t114.5 140.5q5 24 5 46q0 20 -4 40q-9 42 -32.5 74.5t-56.5 63t-71 52t-76.5 42t-72.5 32.5t-59 24q-54 21 -107.5 45t-101.5 47t-89.5 54.5t-71.5 66.5t-47 83.5t-17 105.5q0 155 119 251.5t301 96.5 q64 0 125.5 -12.5t102 -26t96 -45t78 -46.5t77.5 -54l-112 -117q-142 106 -277 131q-44 6 -87 6q-26 0 -52 -2q-69 -6 -124.5 -43t-66.5 -96q-3 -17 -3 -33q-1 -17 3 -33q6 -31 23.5 -55t41.5 -46t52.5 -37.5t58.5 -30t58.5 -24.5t52.5 -20q56 -22 97.5 -39t93.5 -41.5 t89 -47t78 -53t68 -61t50 -70.5q23 -38 33 -80q9 -39 8 -88v-5q0 -51 -15 -107q-24 -89 -78.5 -153t-126.5 -97q-74 -32 -150 -46q-63 -11 -128 -12q-15 0 -29 1q-113 5 -209.5 39t-161 78.5t-143.5 116.5z" />
<glyph unicode="T" horiz-adv-x="1185" d="M88 1272v162h1012v-162h-434v-1272h-179v1272h-399z" />
<glyph unicode="U" horiz-adv-x="1110" d="M88 469v965h178v-977q0 -144 76 -234t213 -90q185 0 252 148q14 31 22 77t10 93.5t3 101.5v52.5v49.5v779h178v-963q0 -234 -118.5 -367t-344.5 -133q-228 0 -346 138q-123 139 -123 360z" />
<glyph unicode="V" horiz-adv-x="1249" d="M27 1434h180l440 -1182l397 1182h179l-482 -1434h-182z" />
<glyph unicode="W" horiz-adv-x="1990" d="M29 1434h176l321 -1170l375 1170h166l383 -1170l336 1170h176l-418 -1434h-178l-381 1174l-375 -1174h-178z" />
<glyph unicode="X" horiz-adv-x="1212" d="M29 0l477 752l-453 682h205l348 -545l346 545h203l-442 -691l479 -743h-201l-381 610l-374 -610h-207z" />
<glyph unicode="Y" horiz-adv-x="1183" d="M10 1434h193l393 -686l385 686h190l-485 -834v-600h-178v596z" />
<glyph unicode="Z" horiz-adv-x="1216" d="M47 0v166l864 1106h-821v162h1034v-166l-862 -1106h907v-162h-1122z" />
<glyph unicode="[" horiz-adv-x="401" d="M57 -102v1638h310v-102h-131v-1434h131v-102h-310z" />
<glyph unicode="\" horiz-adv-x="860" d="M10 1536h183l651 -1640h-178z" />
<glyph unicode="]" horiz-adv-x="425" d="M41 0h131v1434h-131v102h309v-1638h-309v102z" />
<glyph unicode="^" horiz-adv-x="991" d="M86 1116v146l397 174l398 -174v-146l-398 174z" />
<glyph unicode="_" d="M70 0h882v-147h-882v147z" />
<glyph unicode="`" horiz-adv-x="679" d="M109 1286v146l458 -195v-145z" />
<glyph unicode="a" horiz-adv-x="1007" d="M68 328q0 155 118.5 238t319.5 83h227q-1 69 -22 119.5t-48.5 75.5t-66.5 40t-63.5 18t-51.5 3q-36 0 -74 -7.5t-67 -18.5t-52.5 -22t-36.5 -19l-13 -7l-95 113q189 111 351 111q88 0 161 -22t133 -68.5t93.5 -129t33.5 -194.5v-549q-17 -8 -36.5 -22.5t-60.5 -32 t-86.5 -32.5t-115 -25.5t-145.5 -10.5q-53 0 -108.5 14.5t-108.5 45t-94.5 72t-66.5 100.5t-25 127zM244 326q0 -51 27.5 -91.5t68 -63.5t81 -34.5t73.5 -11.5q59 0 110 10.5t73 19.5t58 27v299h-229q-66 0 -116.5 -12.5t-77 -30t-43 -40.5t-21 -40t-4.5 -32z" />
<glyph unicode="b" horiz-adv-x="1015" d="M88 94v1442h178v-588q31 52 95.5 79.5t123.5 27.5q86 0 159.5 -31.5t125 -85t88.5 -123.5t54.5 -146.5t17.5 -154.5q0 -158 -53.5 -280t-162.5 -193.5t-261 -71.5q-193 0 -357 125h-8zM266 176q76 -45 187 -45q299 6 299 383q0 82 -14 147t-38 104.5t-51 66.5t-59.5 39.5 t-56.5 17t-48 4.5q-22 0 -44.5 -4t-54 -21t-55.5 -45t-42.5 -81.5t-22.5 -125.5v-440z" />
<glyph unicode="c" horiz-adv-x="950" d="M57 512q0 105 30 201.5t85.5 173t142 122.5t191.5 46q75 0 135.5 -19.5t106 -57t78 -80.5t63.5 -103q-82 -40 -137 -70q-97 168 -246 168q-85 0 -148.5 -59.5t-92.5 -144.5t-29 -177q0 -69 19 -135.5t53.5 -122t91 -89.5t124.5 -34q69 0 129.5 39.5t98.5 124.5l153 -59 q-124 -267 -381 -267q-116 0 -207.5 46t-147 123.5t-84 172.5t-28.5 201z" />
<glyph unicode="d" horiz-adv-x="993" d="M52 578q3 68 18 122q44 158 148.5 256.5t244.5 98.5q161 0 262 -117v598h178v-1444q-95 -63 -158.5 -88t-156.5 -33q-17 -1 -34 -1q-97 0 -197 39q-118 46 -193 149q-42 56 -69 130t-37 148q-7 56 -7 108q0 18 1 34zM228 502q2 -68 20 -125q22 -69 58 -118.5t78.5 -76.5 t85 -39t87.5 -12q68 0 168 39v373q0 75 -6 112q-19 104 -83 171t-151 67q-67 0 -119.5 -35.5t-81.5 -91.5q-30 -57 -44 -126q-12 -59 -12 -117v-21z" />
<glyph unicode="e" horiz-adv-x="1058" d="M66 466q-1 18 0 35q0 71 14 137q18 84 58.5 160t97.5 132.5t136 90.5t169 34q145 0 261 -74q115 -75 166 -191q32 -73 32 -148q0 -44 -11 -89q-15 -66 -102 -111.5t-195 -60.5q-61 -8 -129 -8q-42 0 -86 3q-117 8 -223 32q7 -37 25.5 -75.5t48 -77.5t75 -69.5t99.5 -42.5 q50 -11 100 -11l236 63l86 -109q-68 -52 -169.5 -84.5t-197.5 -32.5q-153 0 -280.5 93t-176.5 235q-30 81 -34 169zM248 582q86 -28 190 -40q66 -8 124 -8q34 0 65 3q73 5 135 39q59 32 59 77q0 94 -84 169q-79 71 -192 71q-119 0 -201 -90t-96 -221z" />
<glyph unicode="f" horiz-adv-x="550" d="M55 862v162h115v59q0 109 4 152q8 70 31 113t71 73q45 27 104 29h8q54 0 95 -25v-139q-22 9 -52 4.5t-50 -22.5q-21 -20 -27 -49.5t-6 -83.5v-111h148v-162h-148v-862h-178v862h-115z" />
<glyph unicode="g" horiz-adv-x="991" d="M65 509q1 63 9 122q34 182 144.5 301.5t273.5 122.5h26q115 0 196 -24q89 -27 187 -99v-696q0 -82 -4.5 -149.5t-17 -141t-33.5 -130t-56 -108.5t-82.5 -86t-115.5 -53q-65 -19 -144 -19h-8q-94 1 -185 58.5t-165 146.5q71 58 94 80q25 -20 44.5 -34.5t47.5 -32.5 t55.5 -28.5t59.5 -18.5t67.5 -8t71.5 9q91 23 142 121t51 236q-58 -109 -221 -109q-71 0 -134 22.5t-109 61.5t-84 91.5t-60 112.5t-37 125q-13 60 -13 119v8zM242 530q-1 -6 -1 -12q0 -62 15 -126q16 -69 45 -128t79.5 -96t113.5 -37q79 0 132 46.5t75 118.5t22 165v381 q-44 29 -119 44q-38 7 -71 7q-35 0 -66 -8q-84 -24 -132.5 -81.5t-76.5 -152.5q-15 -53 -16 -121z" />
<glyph unicode="h" horiz-adv-x="995" d="M88 0v2v1534h178v-596q0 3 20.5 26.5t39.5 37.5q52 35 120 46q30 5 59 5q40 -1 80 -9q71 -14 139.5 -64.5t113.5 -131.5q28 -52 43 -123.5t17.5 -123.5t2.5 -136v-467h-178v2v447q1 43 1 81v10q0 32 -3 66q-3 38 -8.5 72t-18.5 66t-32 57q-52 66 -128 85q-29 7 -56 7 q-44 0 -83 -19q-41 -18 -71.5 -62t-42.5 -89q-15 -53 -15 -131v-592h-178z" />
<glyph unicode="i" horiz-adv-x="356" d="M76 1249v215h203v-215h-203zM88 0v1024h178v-1024h-178z" />
<glyph unicode="j" horiz-adv-x="450" d="M0 -295q71 9 108 31.5t62 75.5q18 40 18 102v1081h179v-1089q0 -122 -48 -201q-90 -149 -296 -156h-23v156zM176 1249v215h203v-215h-203z" />
<glyph unicode="k" horiz-adv-x="972" d="M88 0v1536h178v-946l445 434h215l-375 -369l393 -655h-192l-312 543l-174 -172v-371h-178z" />
<glyph unicode="l" horiz-adv-x="397" d="M88 412v1124h182v-1157q0 -36 0.5 -57t4 -57.5t10 -58.5t20.5 -41.5t33 -23.5v-141q-50 0 -89 14t-65 35t-44.5 55.5t-28 67t-15 78.5t-7 80t-1.5 82z" />
<glyph unicode="m" horiz-adv-x="1585" d="M88 0v932q176 123 332 123q124 0 201.5 -29.5t140.5 -93.5q143 123 354 123q78 0 145 -31t111.5 -82t73.5 -111.5t39 -125.5q12 -72 13 -246v-459h-179q0 48 -0.5 123t0.5 179t1 181t-1 127q-2 124 -66 203.5t-176 79.5q-143 0 -239 -88q36 -113 36 -295v-510h-178v520 q0 72 -8 127.5t-29.5 109t-64.5 87t-107 43.5q-33 5 -62.5 4.5t-47.5 -2t-43 -10t-33 -12t-35 -15.5v-852h-178z" />
<glyph unicode="n" horiz-adv-x="1011" d="M88 0v932q115 63 210.5 93t203.5 30q161 0 269 -83t142 -235q9 -47 9 -184v-553h-179v555q0 110 -6 141q-19 89 -96 142t-166 53q-40 0 -79 -9t-67 -21.5t-63 -26.5v-834h-178z" />
<glyph unicode="o" horiz-adv-x="1046" d="M61 518q0 245 128.5 391t334.5 146q210 0 336.5 -149t126.5 -388q0 -109 -31.5 -208t-89 -175t-146.5 -121t-196 -45q-141 0 -248 76t-161 200t-54 273zM240 516q0 -93 31.5 -179t98.5 -146t154 -60q90 0 156 55.5t97.5 141.5t31.5 188q0 96 -31 180t-98 140.5t-156 56.5 t-155.5 -56.5t-97.5 -140.5t-31 -180z" />
<glyph unicode="p" horiz-adv-x="956" d="M88 -451v1383q172 120 350 123h9q177 0 290 -117q116 -120 144 -305q7 -61 8 -125v-9q0 -60 -13 -121q-13 -64 -33 -124t-55 -112t-77.5 -90.5t-100.5 -60.5t-125 -22q-140 0 -219 109v-529h-178zM266 559q0 -64 0.5 -93.5t5 -69t13.5 -77.5q16 -63 54.5 -112t96.5 -69 q21 -8 44 -8q39 0 83 22q75 37 113 150q32 94 32 205q0 22 -1 46q-7 91 -35.5 165t-89 124.5t-144.5 50.5q-31 0 -51 -2t-53 -12.5t-68 -30.5v-289z" />
<glyph unicode="q" horiz-adv-x="985" d="M66 491q-2 25 -2 50q0 49 8 94q24 180 150 300t300 120q101 0 189 -29t182 -94v-1383h-178v3v3v2v3v3v3v2v3v3v3v2v3v3v3v2v3v3v3v3v2v3v3v3v2v3v3v3v2v3v3v3v2v3v3v3v2v3v3v3v2v3v3v3v3v2v3v3v3v2v3v3v3v2v3v3v3v2v3v3v3v2v3v3v2v3v3v3v2v3v3v3v2v3v3v3v2v3v3v3v2v3v3v3 v2v3v3v2v3v3v3v2v3v3v3v2v3v3v3v2v3v3v2v3v3v3v2v3v3v2v3v3v3v2v3v3v2v3v3v3v2v3v3v2v3v3v3v2v3v3v2v3v3v2v3v3v3v2v3v3v2v3v3v2v3v3v2v3v3v2v3v3v2v3v3v2v3v3v2v3v3v2v3v3v2v3v3v2v3v3v2v3v2v3v3v2v3v3v2v3v2v3v3v2v3v2v3v2v3v3v2v3v2v3v2v3v2v3v2v8q-47 -66 -99.5 -94.5 t-142.5 -28.5q-79 0 -145.5 30.5t-111.5 81.5t-79.5 118.5t-49.5 141.5t-21 150zM244 567v-21q0 -49 8 -102q9 -65 32 -130.5t69.5 -114.5t109.5 -64q19 -4 38 -4q51 0 95 35q60 47 89.5 125t29.5 160v395q-69 38 -138 46q-20 3 -39 3q-47 0 -88 -15q-57 -20 -102.5 -62 t-72.5 -107t-31 -144z" />
<glyph unicode="r" horiz-adv-x="823" d="M88 0v930q163 125 379 125q74 0 142.5 -18.5t103 -36.5t78.5 -46q-16 -15 -95 -106q-109 53 -204 53q-127 0 -226 -76v-825h-178z" />
<glyph unicode="s" horiz-adv-x="1013" d="M45 123l96 110q11 -6 33 -17t74 -33t118 -37t126 -15q68 0 134 17.5t114 57.5t48 93q0 132 -309 160q-59 5 -114 16t-114.5 33t-103 52.5t-72 78t-28.5 106.5q0 102 58.5 173t151 103.5t210.5 33.5h11q68 0 128 -11q64 -12 116 -36t84.5 -43.5t72.5 -49.5l-93 -110 q-82 50 -149 69t-176 19q-91 0 -163.5 -35t-72.5 -100q0 -49 66 -88t192 -49q257 -20 370.5 -101t113.5 -221q0 -87 -42 -153t-113 -103.5t-153.5 -55.5t-173.5 -18q-90 0 -175 22t-141.5 53t-85.5 50.5t-38 28.5z" />
<glyph unicode="t" horiz-adv-x="532" d="M63 860v164h115v410h178v-410h117v-164h-117v-553q0 -84 13 -104q30 -58 104 -58v-145q-127 0 -172 27q-123 71 -123 221v612h-115z" />
<glyph unicode="u" horiz-adv-x="983" d="M88 573v451h178v-356q0 -64 0.5 -98.5t4 -93.5t11.5 -95.5t21 -79.5t35.5 -73.5t52.5 -51.5q50 -34 116 -42q24 -3 47 -3q38 0 72 8q54 13 89 37v848h178v-932q-116 -85 -265 -112q-54 -10 -106 -10q-90 0 -174 30q-51 20 -91.5 51.5t-67 67.5t-46 83.5t-30 90 t-16.5 96.5t-7.5 93.5t-1.5 90.5z" />
<glyph unicode="v" horiz-adv-x="1038" d="M14 1024h201l307 -819l301 819h197l-404 -1026h-188z" />
<glyph unicode="w" horiz-adv-x="1613" d="M39 1024h172l209 -825l282 825h177l282 -836l234 836h172l-310 -1024h-186l-278 836l-283 -836h-186z" />
<glyph unicode="x" horiz-adv-x="1007" d="M31 0l370 524l-360 500h201l260 -362l260 362h201l-363 -500l377 -524h-205l-270 389l-269 -389h-202z" />
<glyph unicode="y" horiz-adv-x="1040" d="M23 1024h198l291 -745l303 745h197l-492 -1212q-19 -45 -29.5 -69t-31.5 -56.5t-45 -53.5q-91 -80 -258 -84v150q84 14 143 80q35 40 66 119q9 23 24 65.5t23 63.5z" />
<glyph unicode="z" horiz-adv-x="1089" d="M55 0v160l711 702h-692v162h919v-154l-717 -708h760v-162h-981z" />
<glyph unicode="{" horiz-adv-x="512" d="M39 643v178q27 15 46.5 29.5t48.5 45t45.5 77.5t17.5 106q5 457 268 457h2v-162q-28 0 -48 -33.5t-28.5 -86t-12 -95.5t-3.5 -82q-1 -119 -49.5 -214.5t-108.5 -131.5q60 -34 109 -135t49 -227q0 -113 17 -188.5t32 -92.5q12 -14 43 -14v-162h-2q-113 0 -180 72 q-54 52 -71 140t-17 245q0 59 -15 108t-34 77t-44.5 49.5t-39 28.5t-25.5 11z" />
<glyph unicode="|" horiz-adv-x="352" d="M88 -82v1618h178v-1618h-178z" />
<glyph unicode="}" horiz-adv-x="518" d="M39 74q31 0 43 14q15 17 32 92.5t17 188.5q0 126 49 227t109 135q-60 36 -108.5 131.5t-49.5 214.5q0 39 -3.5 82t-12 95.5t-28.5 86t-48 33.5v162h2q263 0 268 -457q1 -59 17.5 -106t45.5 -77.5t48.5 -45t46.5 -29.5v-178q-12 -4 -26 -11.5t-39 -28.5t-44.5 -49t-34 -77 t-14.5 -108q0 -157 -17 -245t-71 -140q-67 -72 -180 -72h-2v162z" />
<glyph unicode="~" d="M219 1161v135q40 30 68 37q58 18 120 1.5t138 -56.5q46 -25 78 -35t76.5 -4t93.5 37v-135q-55 -39 -121 -39q-32 0 -68.5 11t-57 20t-65.5 32q-39 20 -75.5 30.5t-62.5 10t-49 -5t-36.5 -13.5t-25 -15.5t-13.5 -10.5z" />
<glyph unicode="&#xa1;" horiz-adv-x="352" d="M76 1219v215h203v-215h-203zM88 -27v1024h178v-1024h-178z" />
<glyph unicode="&#xa2;" horiz-adv-x="956" d="M66 514q0 126 40.5 237t124 192.5t197.5 105.5v77h178v-77q102 -20 170 -84.5t121 -167.5q-82 -40 -137 -70q-64 113 -154 152v-734q99 31 154 152l153 -59q-108 -228 -307 -261v-57h-178v62q-91 19 -161.5 71t-113.5 124.5t-65 158t-22 178.5zM244 514q0 -114 48 -215 t136 -143v721q-87 -38 -135.5 -142t-48.5 -221z" />
<glyph unicode="&#xa3;" horiz-adv-x="1159" d="M31 113q62 53 103.5 93.5t93.5 100.5t81 122t33 122h-256v162h221q-18 29 -58.5 80t-67 88.5t-47.5 98.5t-17 126q9 146 114 250q98 94 267 106q65 4 121.5 -7.5t98 -32.5t81.5 -57t67 -68.5t60 -79.5q-89 -57 -127 -78q-30 39 -51.5 62t-60 52.5t-86.5 41t-107 5.5 q-80 -7 -136.5 -65t-64.5 -137q-2 -27 2.5 -54t14 -49t22 -44.5t25.5 -40t26 -36.5q86 -116 106 -161h347v-162h-324q-5 -161 -170 -322q56 8 109 0t95.5 -25t82.5 -34.5t85.5 -29.5t88.5 -9q119 8 229 98q65 -62 105 -106q-59 -48 -93.5 -73t-98 -51t-130.5 -30 q-108 -7 -229 41q-42 20 -103.5 42t-113.5 22q-30 0 -57.5 -5.5t-49 -15.5t-43.5 -22.5t-40.5 -26.5t-39.5 -29z" />
<glyph unicode="&#xa4;" horiz-adv-x="866" d="M20 397l115 117q-78 97 -78 227q0 127 80 228l-117 118l66 66l117 -115q102 84 235 84q132 0 234 -78l104 109l66 -66l-109 -104q88 -109 88 -242q0 -131 -84 -241l105 -103l-66 -65l-102 104q-110 -76 -236 -76q-137 0 -239 86l-113 -114zM238 741q0 -90 53.5 -154.5 t146.5 -64.5q95 0 148 64.5t53 154.5q0 88 -53.5 152.5t-147.5 64.5q-93 0 -146.5 -64.5t-53.5 -152.5z" />
<glyph unicode="&#xa5;" horiz-adv-x="1189" d="M10 1434h193l393 -543l385 543h190l-485 -695h283v-161h-283v-152h283v-162h-283v-264h-178v264h-295v162h295v152h-295v161h295z" />
<glyph unicode="&#xa7;" horiz-adv-x="864" d="M51 160l119 100q16 -15 34 -30.5t35.5 -30t39 -27t43.5 -21.5t50 -14.5t58 -5.5q54 0 99 16.5t63 47.5q13 22 16.5 51.5t-4.5 52.5q-15 41 -74.5 78.5t-126 60.5t-129.5 49q-95 38 -147.5 99t-52.5 164q0 83 67.5 147.5t139.5 69.5q-67 36 -104.5 103t-33.5 144 q8 108 100 179t216 71q176 0 317 -166l-117 -84q-89 89 -192 89q-63 0 -111.5 -41t-31.5 -105q9 -36 52 -68t120.5 -70t97.5 -50q90 -53 130 -108.5t40 -147.5q0 -73 -50.5 -125.5t-109.5 -67.5q95 -45 137.5 -106.5t42.5 -159.5q0 -114 -94 -198t-223 -87 q-233 -10 -416 191zM264 698q29 -52 103.5 -77.5t144.5 -6.5q46 14 63.5 68t-6.5 98q-56 107 -200 92q-68 -6 -102 -61.5t-3 -112.5z" />
<glyph unicode="&#xa8;" horiz-adv-x="952" d="M211 1139v176h176v-176h-176zM563 1139v176h176v-176h-176z" />
<glyph unicode="&#xa9;" horiz-adv-x="1112" d="M23 1014q0 144 71 266t193 193t266 71t266 -71t193 -193t71 -266t-71 -266.5t-193 -193.5t-266 -71t-266 71t-193 193.5t-71 266.5zM160 1014q0 -163 115 -278t278 -115t278 115t115 278t-115 278t-278 115t-278 -115t-115 -278zM279 1014q0 111 80 191.5t192 80.5 q124 0 213 -102l-105 -86q-49 49 -108 49q-50 0 -91.5 -40.5t-41.5 -92.5q0 -55 41 -94t92 -39q70 0 117 63l114 -76q-38 -60 -99.5 -94.5t-131.5 -34.5q-112 0 -192 81t-80 194z" />
<glyph unicode="&#xab;" horiz-adv-x="811" d="M16 618l220 406h186l-221 -412l215 -424h-180zM365 618l219 406h186l-221 -412l215 -424h-180z" />
<glyph unicode="&#xad;" horiz-adv-x="811" d="M88 664v159h637v-159h-637z" />
<glyph unicode="&#xae;" horiz-adv-x="1112" d="M27 1010q0 144 71 266t193 193t266 71t266 -71t193 -193t71 -266t-71 -266.5t-193 -193.5t-266 -71t-266 71t-193 193.5t-71 266.5zM164 1010q0 -161 116 -277.5t277 -116.5t277 116.5t116 277.5t-116 277t-277 116t-277 -116t-116 -277zM373 788v457q102 60 202 55 q71 0 132 -42.5t57 -112.5q-3 -83 -98 -137l127 -181q-37 -52 -93 -82l-159 222l-25 -5l-20 -4v-243q-26 6 -48.5 17.5t-35.5 22t-39 33.5zM496 1063q60 5 92 24q29 16 34 49t-30 50q-33 13 -96 -4v-119z" />
<glyph unicode="&#xb0;" horiz-adv-x="737" d="M86 1147q0 119 84 203t203 84q118 0 202 -84.5t84 -202.5q0 -120 -84 -203.5t-202 -83.5q-119 0 -203 83.5t-84 203.5zM258 1147q0 -47 34 -81t81 -34q46 0 79 34t33 81q0 45 -33.5 79t-78.5 34q-46 0 -80.5 -34t-34.5 -79z" />
<glyph unicode="&#xb1;" horiz-adv-x="921" d="M86 82h737v162h-737v-162zM86 707v161h279v289h178v-289h280v-161h-280v-287h-178v287h-279z" />
<glyph unicode="&#xb4;" horiz-adv-x="952" d="M231 1092v145l459 195v-146z" />
<glyph unicode="&#xb7;" horiz-adv-x="356" d="M88 717v307h178v-307h-178z" />
<glyph unicode="&#xbb;" horiz-adv-x="849" d="M76 1024h186l219 -406l-219 -430h-180l215 424zM424 1024h186l219 -406l-219 -430h-180l215 424z" />
<glyph unicode="&#xbd;" horiz-adv-x="1363" d="M20 1178l189 256h178v-664h-178v404l-80 -80zM59 0l899 1434h199l-901 -1434h-197zM778 0v162q102 81 221 190q129 118 129 193q0 5 -2 13.5t-9 26.5t-27.5 30t-51.5 12q-36 0 -66.5 -26.5t-43.5 -52.5l-13 -26l-137 45q85 224 273 224q115 0 185.5 -74.5t70.5 -171.5 q0 -126 -154 -269l-125 -114h295v-162h-545z" />
<glyph unicode="&#xbf;" horiz-adv-x="856" d="M74 330q-4 -73 16.5 -138t63 -115t112 -79t156.5 -29q177 0 276 94t101 261q1 42 -14 85.5t-44.5 85t-49.5 65.5t-52 58q-34 36 -52 57.5t-42.5 57.5t-35.5 74t-11 80v137h-179v-137q0 -57 11.5 -104t38 -90.5t56 -78t79.5 -84.5q36 -36 71 -88.5t41 -83.5 q19 -91 -35.5 -159t-156.5 -68q-47 0 -84 15t-58.5 37t-35.5 50.5t-18.5 52t-4.5 44.5h-149zM307 1243v215h203v-215h-203z" />
<glyph unicode="&#xc0;" horiz-adv-x="1202" d="M10 0l479 1434h199l492 -1434h-179l-104 291h-610l-99 -291h-178zM340 453h504l-256 743zM375 1692v145l459 -195v-145z" />
<glyph unicode="&#xc1;" horiz-adv-x="1206" d="M10 0h178l99 291h610l104 -291h179l-492 1434h-199zM340 453l248 743l256 -743h-504zM354 1520v145l459 195v-146z" />
<glyph unicode="&#xc2;" horiz-adv-x="1196" d="M10 0h178l99 291h610l104 -291h179l-492 1434h-199zM195 1497v145l397 175l397 -175v-145l-397 174zM340 453l248 743l256 -743h-504z" />
<glyph unicode="&#xc3;" horiz-adv-x="1202" d="M10 0h178l99 291h610l104 -291h179l-492 1434h-199zM332 1554v136q38 29 67 36q58 18 120 1.5t138 -56.5q46 -25 78.5 -34.5t76.5 -3.5t93 36v-135q-55 -39 -121 -39q-31 0 -66.5 10.5t-59 21.5t-64.5 32q-156 81 -262 -5zM340 453l248 743l256 -743h-504z" />
<glyph unicode="&#xc4;" horiz-adv-x="1202" d="M10 0l479 1434h199l492 -1434h-179l-104 291h-610l-99 -291h-178zM322 1536v176h176v-176h-176zM340 453h504l-256 743zM674 1536v176h176v-176h-176z" />
<glyph unicode="&#xc5;" horiz-adv-x="1202" d="M10 0h178l99 291h610l104 -291h179l-492 1434h-199zM340 453l248 743l256 -743h-504zM408 1677q0 74 51.5 126t124.5 52q74 0 126 -52t52 -126q0 -72 -52.5 -124t-125.5 -52t-124.5 52t-51.5 124zM502 1677q0 -34 24 -58t58 -24q35 0 59.5 24t24.5 58q0 35 -24.5 59.5 t-59.5 24.5q-34 0 -58 -24.5t-24 -59.5z" />
<glyph unicode="&#xc6;" horiz-adv-x="1615" d="M27 0l479 1434h979v-162h-750l154 -447h409v-161h-356l174 -502h432v-162h-559l-108 291h-574l-98 -291h-182zM360 455h471l-239 700z" />
<glyph unicode="&#xc7;" horiz-adv-x="1204" d="M61 692q0 117 24.5 229t74 210t118.5 172.5t164.5 117.5t204.5 43q176 0 290.5 -86.5t188.5 -242.5q-128 -65 -143 -72q-56 108 -136.5 174t-182.5 66q-86 0 -158.5 -39t-120.5 -102t-81.5 -144.5t-48.5 -163.5t-15 -162q0 -95 29 -192.5t81.5 -180.5t136.5 -135.5 t183 -52.5q120 0 207.5 72.5t138.5 181.5l145 -45q-46 -126 -132.5 -215t-203.5 -129q43 -25 73.5 -72.5t29.5 -97.5q-1 -130 -91 -203.5t-235 -73.5q-59 0 -129 26.5t-117 66.5l84 114l14 -7q15 -7 35.5 -15.5t51.5 -15.5t59 -7q60 0 105 32.5t45 82.5q-2 35 -25.5 58.5 t-52.5 32.5t-62 9q-65 0 -161 -53v137q-122 53 -212 166t-133 246t-43 270z" />
<glyph unicode="&#xc8;" horiz-adv-x="1021" d="M88 0v1434h821v-162h-643v-432h592v-162h-592v-516h674v-162h-852zM260 1692v145l459 -195v-145z" />
<glyph unicode="&#xc9;" horiz-adv-x="1021" d="M88 0h852v162h-674v516h592v162h-592v432h643v162h-821v-1434zM293 1520v145l459 195v-146z" />
<glyph unicode="&#xca;" horiz-adv-x="1021" d="M88 0h852v162h-674v516h592v162h-592v432h643v162h-821v-1434zM102 1520v145l398 174l397 -174v-145l-397 174z" />
<glyph unicode="&#xcb;" horiz-adv-x="1021" d="M88 0v1434h821v-162h-643v-432h592v-162h-592v-516h674v-162h-852zM231 1536v176h177v-176h-177zM584 1536v176h176v-176h-176z" />
<glyph unicode="&#xcc;" horiz-adv-x="491" d="M68 1692v145l356 -195v-145zM158 0v1434h178v-1434h-178z" />
<glyph unicode="&#xcd;" horiz-adv-x="487" d="M59 1497v145l357 195v-145zM150 0h178v1434h-178v-1434z" />
<glyph unicode="&#xce;" horiz-adv-x="641" d="M63 1485v145l254 174l254 -174v-145l-254 174zM221 0h178v1434h-178v-1434z" />
<glyph unicode="&#xcf;" horiz-adv-x="626" d="M47 1536v176h176v-176h-176zM221 0v1434h178v-1434h-178zM399 1536v176h176v-176h-176z" />
<glyph unicode="&#xd0;" horiz-adv-x="1232" d="M41 717v162h149v555h263q160 0 279.5 -35.5t187.5 -87.5q254 -193 254 -596q0 -207 -64 -350t-190 -236q-175 -129 -437 -129h-293v717h-149zM369 162q167 0 280.5 27t188.5 94q76 67 116.5 179t40.5 253q0 281 -155 430q-79 72 -180 99.5t-291 27.5v-393h145v-162h-145 v-555z" />
<glyph unicode="&#xd1;" horiz-adv-x="1189" d="M88 0h178v1116l647 -1116h193v1434h-178v-1121l-649 1121h-191v-1434zM313 1571v135q44 31 68 37q58 18 120.5 1t137.5 -56q46 -25 78 -35t76.5 -4t93.5 37v-136q-57 -39 -121 -39q-32 0 -68 10.5t-58 21t-65 32.5q-27 14 -52 23t-46 12.5t-39 4.5t-34.5 -2.5t-28 -6.5 t-23.5 -9.5t-17.5 -10t-13.5 -9.5z" />
<glyph unicode="&#xd2;" horiz-adv-x="1314" d="M70 733q0 112 24 218.5t73 199.5t118.5 162.5t166.5 110t210 40.5q118 0 216.5 -42.5t165 -113.5t113 -166t67.5 -198t21 -211q0 -121 -21.5 -232t-68 -208.5t-114 -169t-164.5 -113t-215 -41.5q-104 0 -193 32.5t-152.5 89t-112 130.5t-77 160.5t-43 174.5t-14.5 177z M248 733q0 -79 14 -159.5t46.5 -161t79 -142.5t117.5 -100.5t157 -38.5q98 0 176 48.5t127.5 132.5t75.5 191.5t26 229.5q0 81 -14.5 160t-46 153.5t-78 131t-115 91t-151.5 34.5q-80 0 -149.5 -37t-117 -97t-81.5 -135.5t-50 -152t-16 -148.5zM395 1692v145l459 -195v-145z " />
<glyph unicode="&#xd3;" horiz-adv-x="1318" d="M70 733q0 -89 14.5 -177t43 -174.5t77 -160.5t112 -130.5t152.5 -89t193 -32.5q118 0 215 41.5t164.5 113t114 169t68 208.5t21.5 232q0 108 -21 211t-67.5 198t-113 166t-165 113.5t-216.5 42.5q-113 0 -210 -40.5t-166.5 -110t-118.5 -162.5t-73 -199.5t-24 -218.5z M248 733q0 72 16 148.5t50 152t81.5 135.5t117 97t149.5 37q83 0 151.5 -34.5t115 -91t78 -131t46 -153.5t14.5 -160q0 -122 -26 -229.5t-75.5 -191.5t-127.5 -132.5t-176 -48.5q-86 0 -157 38.5t-117.5 100.5t-79 142.5t-46.5 161t-14 159.5zM416 1499v146l458 194v-145z " />
<glyph unicode="&#xd4;" horiz-adv-x="1318" d="M70 733q0 -89 14.5 -177t43 -174.5t77 -160.5t112 -130.5t152.5 -89t193 -32.5q118 0 215 41.5t164.5 113t114 169t68 208.5t21.5 232q0 108 -21 211t-67.5 198t-113 166t-165 113.5t-216.5 42.5q-113 0 -210 -40.5t-166.5 -110t-118.5 -162.5t-73 -199.5t-24 -218.5z M248 733q0 72 16 148.5t50 152t81.5 135.5t117 97t149.5 37q83 0 151.5 -34.5t115 -91t78 -131t46 -153.5t14.5 -160q0 -122 -26 -229.5t-75.5 -191.5t-127.5 -132.5t-176 -48.5q-86 0 -157 38.5t-117.5 100.5t-79 142.5t-46.5 161t-14 159.5zM270 1520v145l398 174 l397 -174v-145l-397 174z" />
<glyph unicode="&#xd5;" horiz-adv-x="1310" d="M70 733q0 -89 14.5 -177t43 -174.5t77 -160.5t112 -130.5t152.5 -89t193 -32.5q118 0 215 41.5t164.5 113t114 169t68 208.5t21.5 232q0 108 -21 211t-67.5 198t-113 166t-165 113.5t-216.5 42.5q-113 0 -210 -40.5t-166.5 -110t-118.5 -162.5t-73 -199.5t-24 -218.5z M248 733q0 72 16 148.5t50 152t81.5 135.5t117 97t149.5 37q83 0 151.5 -34.5t115 -91t78 -131t46 -153.5t14.5 -160q0 -122 -26 -229.5t-75.5 -191.5t-127.5 -132.5t-176 -48.5q-86 0 -157 38.5t-117.5 100.5t-79 142.5t-46.5 161t-14 159.5zM393 1575v135q45 31 68 37 q58 18 120 1.5t138 -56.5q46 -25 78 -35t76.5 -4t93.5 37v-136q-55 -38 -121 -38q-32 0 -67.5 10t-59 21t-64.5 32q-27 14 -52 23t-46 12.5t-39.5 4.5t-35 -2.5t-28 -6.5t-23 -9.5t-17 -10t-13.5 -9.5z" />
<glyph unicode="&#xd6;" horiz-adv-x="1318" d="M70 733q0 112 24 218.5t73 199.5t118.5 162.5t166.5 110t210 40.5q118 0 216.5 -42.5t165 -113.5t113 -166t67.5 -198t21 -211q0 -121 -21.5 -232t-68 -208.5t-114 -169t-164.5 -113t-215 -41.5q-104 0 -193 32.5t-152.5 89t-112 130.5t-77 160.5t-43 174.5t-14.5 177z M248 733q0 -79 14 -159.5t46.5 -161t79 -142.5t117.5 -100.5t157 -38.5q98 0 176 48.5t127.5 132.5t75.5 191.5t26 229.5q0 81 -14.5 160t-46 153.5t-78 131t-115 91t-151.5 34.5q-80 0 -149.5 -37t-117 -97t-81.5 -135.5t-50 -152t-16 -148.5zM395 1536v176h176v-176h-176z M748 1536v176h176v-176h-176z" />
<glyph unicode="&#xd7;" horiz-adv-x="827" d="M86 606l209 209l-209 209l115 117l209 -209l211 209l114 -117l-209 -209l209 -209l-114 -117l-211 211l-209 -211z" />
<glyph unicode="&#xd8;" horiz-adv-x="1259" d="M70 733q0 112 24 218.5t73 199.5t118.5 162.5t166.5 110t210 40.5q161 0 286 -78l45 78h183l-107 -184q88 -104 132 -247.5t44 -299.5q0 -121 -21.5 -232t-68 -208.5t-114 -169t-164.5 -113t-215 -41.5q-173 0 -304 88l-55 -88h-178l119 197q-88 109 -131 260t-43 307z M248 733q0 -100 23.5 -205t70.5 -190l520 901q-90 64 -200 64q-80 0 -149.5 -37t-117 -97t-81.5 -135.5t-50 -152t-16 -148.5zM446 209q92 -78 216 -78q98 0 176 48.5t127.5 132.5t75.5 191.5t26 229.5q0 225 -94 381z" />
<glyph unicode="&#xd9;" horiz-adv-x="1134" d="M88 469v965h178v-977q0 -144 76 -234t213 -90q185 0 252 148q14 31 22 77t10 93.5t3 101.5t0 102v779h178v-963q0 -234 -118.5 -367t-344.5 -133q-228 0 -346 138q-123 139 -123 360zM326 1692v145l458 -195v-145z" />
<glyph unicode="&#xda;" horiz-adv-x="1144" d="M88 469q0 -221 123 -360q118 -138 346 -138q226 0 344.5 133t118.5 367v963h-178v-779q1 -48 0 -102t-3 -101.5t-10 -93.5t-22 -77q-67 -148 -252 -148q-137 0 -213 90t-76 234v977h-178v-965zM332 1499v146l459 194v-145z" />
<glyph unicode="&#xdb;" horiz-adv-x="1134" d="M88 469q0 -221 123 -360q118 -138 346 -138q226 0 344.5 133t118.5 367v963h-178v-779q1 -48 0 -102t-3 -101.5t-10 -93.5t-22 -77q-67 -148 -252 -148q-137 0 -213 90t-76 234v977h-178v-965zM160 1497v145l397 175l397 -175v-145l-397 174z" />
<glyph unicode="&#xdc;" horiz-adv-x="1134" d="M88 469v965h178v-977q0 -144 76 -234t213 -90q185 0 252 148q14 31 22 77t10 93.5t3 101.5t0 102v779h178v-963q0 -234 -118.5 -367t-344.5 -133q-228 0 -346 138q-123 139 -123 360zM285 1536v176h176v-176h-176zM637 1536v176h176v-176h-176z" />
<glyph unicode="&#xdd;" horiz-adv-x="1196" d="M14 1434l498 -838v-596h178v600l486 834h-191l-385 -686l-393 686h-193zM354 1499v146l459 194v-145z" />
<glyph unicode="&#xdf;" horiz-adv-x="1112" d="M88 0v793v270q0 159 119 289q109 112 303 112q310 0 403 -247q54 -145 11 -283q-17 -57 -76 -110t-103 -70q169 -58 238 -172q80 -132 59.5 -288t-129.5 -255q-107 -100 -264 -100q-63 -1 -124 17t-94 35.5t-91 53.5l78 131q170 -107 291 -65q66 23 107.5 72.5t52 107.5 t-2.5 118.5t-49 106.5q-52 73 -152.5 96t-267.5 23v162q238 0 326 121q38 54 41.5 128t-29 139.5t-92.5 92.5q-61 29 -138 24t-122 -38q-29 -21 -50 -46t-33.5 -57t-19.5 -56.5t-10 -64.5t-3.5 -59t-0.5 -61v-920h-178z" />
<glyph unicode="&#xe0;" horiz-adv-x="1005" d="M68 328q0 155 118.5 238t319.5 83h227q-1 69 -22 119.5t-48.5 75.5t-66.5 40t-63.5 18t-51.5 3q-36 0 -74 -7.5t-67 -18.5t-52.5 -22t-36.5 -19l-13 -7l-95 113q189 111 351 111q88 0 161 -22t133 -68.5t93.5 -129t33.5 -194.5v-549q-17 -8 -36.5 -22.5t-60.5 -32 t-86.5 -32.5t-115 -25.5t-145.5 -10.5q-53 0 -108.5 14.5t-108.5 45t-94.5 72t-66.5 100.5t-25 127zM244 326q0 -51 27.5 -91.5t68 -63.5t81 -34.5t73.5 -11.5q59 0 110 10.5t73 19.5t58 27v299h-229q-66 0 -116.5 -12.5t-77 -30t-43 -40.5t-21 -40t-4.5 -32zM252 1286v146 l459 -195v-145z" />
<glyph unicode="&#xe1;" horiz-adv-x="1005" d="M68 328q0 -68 25 -127t66.5 -100.5t94.5 -72t108.5 -45t108.5 -14.5q76 0 145.5 10.5t115 25.5t86.5 32.5t60.5 32t36.5 22.5v549q0 112 -33.5 194.5t-93.5 129t-133 68.5t-161 22q-162 0 -351 -111l95 -113l13 7q13 8 36.5 19t52.5 22t67 18.5t74 7.5q27 0 51.5 -3 t63.5 -18t66.5 -40t48.5 -75.5t22 -119.5h-227q-201 0 -319.5 -83t-118.5 -238zM231 1092v145l459 195v-146zM244 326q0 15 4.5 32t21 40t43 40.5t77 30t116.5 12.5h229v-299q-36 -18 -58 -27t-73 -19.5t-110 -10.5q-33 0 -73.5 11.5t-81 34.5t-68 63.5t-27.5 91.5z" />
<glyph unicode="&#xe2;" horiz-adv-x="1005" d="M68 328q0 -68 25 -127t66.5 -100.5t94.5 -72t108.5 -45t108.5 -14.5q76 0 145.5 10.5t115 25.5t86.5 32.5t60.5 32t36.5 22.5v549q0 112 -33.5 194.5t-93.5 129t-133 68.5t-161 22q-162 0 -351 -111l95 -113l13 7q13 8 36.5 19t52.5 22t67 18.5t74 7.5q27 0 51.5 -3 t63.5 -18t66.5 -40t48.5 -75.5t22 -119.5h-227q-201 0 -319.5 -83t-118.5 -238zM129 1116v146l397 174l398 -174v-146l-398 174zM244 326q0 15 4.5 32t21 40t43 40.5t77 30t116.5 12.5h229v-299q-36 -18 -58 -27t-73 -19.5t-110 -10.5q-33 0 -73.5 11.5t-81 34.5t-68 63.5 t-27.5 91.5z" />
<glyph unicode="&#xe3;" horiz-adv-x="1005" d="M68 328q0 -68 25 -127t66.5 -100.5t94.5 -72t108.5 -45t108.5 -14.5q76 0 145.5 10.5t115 25.5t86.5 32.5t60.5 32t36.5 22.5v549q0 112 -33.5 194.5t-93.5 129t-133 68.5t-161 22q-162 0 -351 -111l95 -113l13 7q13 8 36.5 19t52.5 22t67 18.5t74 7.5q27 0 51.5 -3 t63.5 -18t66.5 -40t48.5 -75.5t22 -119.5h-227q-201 0 -319.5 -83t-118.5 -238zM219 1161v135q40 30 68 37q58 18 120 1.5t138 -56.5q46 -25 78 -35t76.5 -4t93.5 37v-135q-55 -39 -121 -39q-32 0 -68.5 11t-57 20t-65.5 32q-39 20 -75.5 30.5t-62.5 10t-49 -5t-36.5 -13.5 t-25 -15.5t-13.5 -10.5zM244 326q0 15 4.5 32t21 40t43 40.5t77 30t116.5 12.5h229v-299q-36 -18 -58 -27t-73 -19.5t-110 -10.5q-33 0 -73.5 11.5t-81 34.5t-68 63.5t-27.5 91.5z" />
<glyph unicode="&#xe4;" horiz-adv-x="1005" d="M68 328q0 155 118.5 238t319.5 83h227q-1 69 -22 119.5t-48.5 75.5t-66.5 40t-63.5 18t-51.5 3q-36 0 -74 -7.5t-67 -18.5t-52.5 -22t-36.5 -19l-13 -7l-95 113q189 111 351 111q88 0 161 -22t133 -68.5t93.5 -129t33.5 -194.5v-549q-17 -8 -36.5 -22.5t-60.5 -32 t-86.5 -32.5t-115 -25.5t-145.5 -10.5q-53 0 -108.5 14.5t-108.5 45t-94.5 72t-66.5 100.5t-25 127zM240 1139v176h176v-176h-176zM244 326q0 -51 27.5 -91.5t68 -63.5t81 -34.5t73.5 -11.5q59 0 110 10.5t73 19.5t58 27v299h-229q-66 0 -116.5 -12.5t-77 -30t-43 -40.5 t-21 -40t-4.5 -32zM592 1139v176h176v-176h-176z" />
<glyph unicode="&#xe5;" horiz-adv-x="1005" d="M68 328q0 -68 25 -127t66.5 -100.5t94.5 -72t108.5 -45t108.5 -14.5q76 0 145.5 10.5t115 25.5t86.5 32.5t60.5 32t36.5 22.5v549q0 112 -33.5 194.5t-93.5 129t-133 68.5t-161 22q-162 0 -351 -111l95 -113l13 7q13 8 36.5 19t52.5 22t67 18.5t74 7.5q27 0 51.5 -3 t63.5 -18t66.5 -40t48.5 -75.5t22 -119.5h-227q-201 0 -319.5 -83t-118.5 -238zM244 326q0 15 4.5 32t21 40t43 40.5t77 30t116.5 12.5h229v-299q-36 -18 -58 -27t-73 -19.5t-110 -10.5q-33 0 -73.5 11.5t-81 34.5t-68 63.5t-27.5 91.5zM317 1290q0 74 52 126t125 52 q74 0 126 -52t52 -126q0 -72 -52.5 -124t-125.5 -52t-125 52t-52 124zM412 1290q0 -34 24 -58t58 -24q35 0 59.5 24t24.5 58q0 35 -24.5 59.5t-59.5 24.5q-34 0 -58 -24.5t-24 -59.5z" />
<glyph unicode="&#xe6;" horiz-adv-x="1748" d="M68 328q0 155 118.5 238t319.5 83h227q-1 69 -22 119.5t-48.5 75.5t-66.5 40t-63.5 18t-51.5 3q-36 0 -74 -7.5t-67 -18.5t-52.5 -22t-36.5 -19l-13 -7l-95 113q189 111 351 111q263 0 366 -176q136 176 350 176q145 0 260.5 -74t166.5 -190.5t22 -237.5 q-16 -66 -102.5 -111.5t-194.5 -60.5q-98 -13 -215 -5t-223 32q10 -51 37.5 -102t83 -99t126.5 -64q170 -39 336 52q36 -41 86 -109q-68 -52 -169 -84.5t-197 -32.5q-179 0 -316 121q-183 -121 -440 -121q-53 0 -108.5 14.5t-108.5 45t-94.5 72t-66.5 100.5t-25 127z M244 326q0 -51 27.5 -91.5t68 -63.5t81 -34.5t73.5 -11.5q59 0 110 10.5t73 19.5t58 27v299h-229q-66 0 -116.5 -12.5t-77 -30t-43 -40.5t-21 -40t-4.5 -32zM918 582q84 -28 189 -40t189 -5q74 5 136 38.5t59 81.5q-5 94 -84 165t-193 71q-119 0 -200.5 -90t-95.5 -221z" />
<glyph unicode="&#xe7;" horiz-adv-x="931" d="M57 512q0 105 30 201.5t85.5 173t142 122.5t191.5 46q75 0 135.5 -19.5t106 -57t78 -80.5t63.5 -103q-82 -40 -137 -70q-97 168 -246 168q-85 0 -148.5 -59.5t-92.5 -144.5t-29 -177q0 -69 19 -135.5t53.5 -122t91 -89.5t124.5 -34q69 0 129.5 39.5t98.5 124.5l153 -59 q-83 -178 -231 -240q47 -18 76.5 -66.5t29.5 -111.5q0 -122 -88.5 -192t-232.5 -70q-61 0 -131 24t-115 62l84 114l15 -7q14 -7 34.5 -15.5t51.5 -15.5t59 -7q60 0 104.5 32.5t44.5 82.5q-3 51 -45 75.5t-94 24.5q-66 0 -162 -53v147q-122 67 -185 199.5t-63 292.5z" />
<glyph unicode="&#xe8;" horiz-adv-x="1091" d="M66.5 465.5q-4.5 88.5 13.5 172t58.5 160t97.5 133t136 90.5t169 34q145 0 260.5 -74t166.5 -190.5t21 -237.5q-15 -66 -102 -111.5t-195 -60.5q-98 -13 -215 -5t-223 32q7 -37 25.5 -75.5t48 -77.5t75 -69.5t99.5 -42.5q168 -38 336 52l86 -109q-68 -52 -169.5 -84.5 t-197.5 -32.5q-153 0 -280.5 93t-176.5 235q-29 80 -33.5 168.5zM248 582q85 -28 189.5 -40t189.5 -5q74 5 135.5 38.5t58.5 81.5q-5 94 -84 165t-192 71q-119 0 -201 -90t-96 -221zM313 1286v146l459 -195v-145z" />
<glyph unicode="&#xe9;" horiz-adv-x="1052" d="M66.5 465.5q4.5 -88.5 33.5 -168.5q49 -142 176.5 -235t280.5 -93q96 0 197.5 32.5t169.5 84.5l-86 109q-168 -90 -336 -52q-54 12 -99.5 42.5t-75 69.5t-48 77.5t-25.5 75.5q106 -24 223 -32t215 5q108 15 195 60.5t102 111.5q30 121 -21 237.5t-166.5 190.5t-260.5 74 q-90 0 -169 -34t-136 -90.5t-97.5 -133t-58.5 -160t-13.5 -172zM248 582q14 131 96 221t201 90q113 0 192 -71t84 -165q3 -48 -58.5 -81.5t-135.5 -38.5q-85 -7 -189.5 5t-189.5 40zM293 1092v145l459 195v-146z" />
<glyph unicode="&#xea;" horiz-adv-x="1073" d="M66.5 465.5q4.5 -88.5 33.5 -168.5q49 -142 176.5 -235t280.5 -93q96 0 197.5 32.5t169.5 84.5l-86 109q-168 -90 -336 -52q-54 12 -99.5 42.5t-75 69.5t-48 77.5t-25.5 75.5q106 -24 223 -32t215 5q108 15 195 60.5t102 111.5q30 121 -21 237.5t-166.5 190.5t-260.5 74 q-90 0 -169 -34t-136 -90.5t-97.5 -133t-58.5 -160t-13.5 -172zM127 1116v146l397 174l398 -174v-146l-398 174zM248 582q14 131 96 221t201 90q113 0 192 -71t84 -165q3 -48 -58.5 -81.5t-135.5 -38.5q-85 -7 -189.5 5t-189.5 40z" />
<glyph unicode="&#xeb;" d="M66.5 465.5q-4.5 88.5 13.5 172t58.5 160t97.5 133t136 90.5t169 34q145 0 260.5 -74t166.5 -190.5t21 -237.5q-15 -66 -102 -111.5t-195 -60.5q-98 -13 -215 -5t-223 32q7 -37 25.5 -75.5t48 -77.5t75 -69.5t99.5 -42.5q168 -38 336 52l86 -109q-68 -52 -169.5 -84.5 t-197.5 -32.5q-153 0 -280.5 93t-176.5 235q-29 80 -33.5 168.5zM248 582q85 -28 189.5 -40t189.5 -5q74 5 135.5 38.5t58.5 81.5q-5 94 -84 165t-192 71q-119 0 -201 -90t-96 -221zM252 1139v176h176v-176h-176zM604 1139v176h176v-176h-176z" />
<glyph unicode="&#xec;" horiz-adv-x="473" d="M45 1434h178l195 -316h-178zM145 0h179v1024h-179v-1024z" />
<glyph unicode="&#xed;" horiz-adv-x="464" d="M55 1120l195 316h176l-195 -316h-176zM143 0v1024h179v-1024h-179z" />
<glyph unicode="&#xee;" horiz-adv-x="608" d="M66 1110v152l233 174l233 -174v-152l-233 174zM205 0h178v1024h-178v-1024z" />
<glyph unicode="&#xef;" horiz-adv-x="636" d="M47 1200v176h176v-176h-176zM221 0v1024h178v-1024h-178zM399 1200v176h176v-176h-176z" />
<glyph unicode="&#xf0;" horiz-adv-x="1052" d="M90 330q-19 128 22 234t119 173q116 105 271 105q56 0 116.5 -16t92.5 -44q-70 206 -260 373l-211 -125l-78 133l155 90q-73 47 -141 76q1 3 24.5 62t28.5 73q125 -54 234 -127l221 129l78 -133l-170 -98q154 -143 264 -369q120 -256 111 -465q-3 -80 -33.5 -155.5 t-83 -138t-135.5 -100.5t-183 -38q-171 0 -293 97t-149 264zM258 414q0 -120 76.5 -201.5t197.5 -81.5q112 0 185.5 84.5t73.5 206.5q0 110 -74 184t-187 74q-120 0 -196 -72.5t-76 -193.5z" />
<glyph unicode="&#xf1;" horiz-adv-x="1007" d="M88 0h178v834q35 14 63 26.5t67 21.5t79 9q89 0 166 -53t96 -142q6 -31 6 -141v-555h179v553q0 137 -9 184q-34 152 -142 235t-269 83q-108 0 -203.5 -30t-210.5 -93v-932zM199 1182v135q41 30 67 37q58 18 120 1t138 -57q46 -25 78.5 -34.5t76.5 -3.5t93 36v-135 q-57 -39 -121 -39q-31 0 -66.5 10.5t-59 21.5t-64.5 32q-39 20 -75.5 30t-62.5 9.5t-49.5 -5t-36.5 -13t-24.5 -15t-13.5 -10.5z" />
<glyph unicode="&#xf2;" horiz-adv-x="1046" d="M61 518q0 -149 54 -273t161 -200t248 -76q107 0 196 45t146.5 121t89 175t31.5 208q0 239 -126.5 388t-336.5 149q-206 0 -334.5 -146t-128.5 -391zM240 516q0 96 31 180t97.5 140.5t155.5 56.5t156 -56.5t98 -140.5t31 -180q0 -102 -31.5 -188t-97.5 -141.5t-156 -55.5 q-87 0 -154 60t-98.5 146t-31.5 179zM272 1092v145l459 195v-146z" />
<glyph unicode="&#xf3;" horiz-adv-x="1046" d="M61 518q0 -149 54 -273t161 -200t248 -76q107 0 196 45t146.5 121t89 175t31.5 208q0 239 -126.5 388t-336.5 149q-206 0 -334.5 -146t-128.5 -391zM240 516q0 96 31 180t97.5 140.5t155.5 56.5t156 -56.5t98 -140.5t31 -180q0 -102 -31.5 -188t-97.5 -141.5t-156 -55.5 q-87 0 -154 60t-98.5 146t-31.5 179zM268 1092v145l459 195v-146z" />
<glyph unicode="&#xf4;" horiz-adv-x="1046" d="M61 518q0 -149 54 -273t161 -200t248 -76q107 0 196 45t146.5 121t89 175t31.5 208q0 239 -126.5 388t-336.5 149q-206 0 -334.5 -146t-128.5 -391zM125 1116v146l397 174l398 -174v-146l-398 174zM240 516q0 96 31 180t97.5 140.5t155.5 56.5t156 -56.5t98 -140.5 t31 -180q0 -102 -31.5 -188t-97.5 -141.5t-156 -55.5q-87 0 -154 60t-98.5 146t-31.5 179z" />
<glyph unicode="&#xf5;" d="M61 518q0 -149 54 -273t161 -200t248 -76q107 0 196 45t146.5 121t89 175t31.5 208q0 239 -126.5 388t-336.5 149q-206 0 -334.5 -146t-128.5 -391zM240 516q0 96 31 180t97.5 140.5t155.5 56.5t156 -56.5t98 -140.5t31 -180q0 -102 -31.5 -188t-97.5 -141.5t-156 -55.5 q-87 0 -154 60t-98.5 146t-31.5 179zM240 1182v135q40 30 67 37q58 18 120 1t138 -57q46 -25 78.5 -34.5t76.5 -3.5t93 36v-135q-57 -39 -121 -39q-31 0 -66.5 10.5t-59 21.5t-64.5 32q-39 20 -75.5 30t-62.5 9.5t-49.5 -5t-36.5 -13t-24.5 -15t-13.5 -10.5z" />
<glyph unicode="&#xf6;" horiz-adv-x="1046" d="M61 518q0 245 128.5 391t334.5 146q210 0 336.5 -149t126.5 -388q0 -109 -31.5 -208t-89 -175t-146.5 -121t-196 -45q-141 0 -248 76t-161 200t-54 273zM240 516q0 -93 31.5 -179t98.5 -146t154 -60q90 0 156 55.5t97.5 141.5t31.5 188q0 96 -31 180t-98 140.5t-156 56.5 t-155.5 -56.5t-97.5 -140.5t-31 -180zM262 1139v176h176v-176h-176zM614 1139v176h177v-176h-177z" />
<glyph unicode="&#xf7;" d="M70 655v162h878v-162h-878zM414 283v215h202v-215h-202zM414 979v215h202v-215h-202z" />
<glyph unicode="&#xf8;" horiz-adv-x="1046" d="M57 -29l121 170q-117 152 -117 377q0 245 128.5 391t334.5 146q143 0 252 -74l49 70h164l-115 -162q113 -144 113 -371q0 -109 -31.5 -208t-89 -175t-146.5 -121t-196 -45q-141 0 -252 78l-55 -76h-160zM240 516q0 -118 49 -219l387 543q-68 53 -152 53 q-89 0 -155.5 -56.5t-97.5 -140.5t-31 -180zM373 188q69 -57 151 -57q90 0 156 55.5t97.5 141.5t31.5 188q0 119 -47 215z" />
<glyph unicode="&#xf9;" horiz-adv-x="983" d="M88 573v451h178v-356q0 -64 0.5 -98.5t4 -93.5t11.5 -95.5t21 -79.5t35.5 -73.5t52.5 -51.5q50 -35 116 -42.5t119.5 5.5t88.5 37v848h178v-932q-116 -85 -265 -112t-280 20q-51 20 -91.5 51.5t-67 67.5t-46 83.5t-30 90t-16.5 96.5t-7.5 93.5t-1.5 90.5zM262 1286v146 l459 -195v-145z" />
<glyph unicode="&#xfa;" horiz-adv-x="983" d="M88 573q0 -51 1.5 -90.5t7.5 -93.5t16.5 -96.5t30 -90t46 -83.5t67 -67.5t91.5 -51.5q131 -47 280 -20t265 112v932h-178v-848q-35 -24 -88.5 -37t-119.5 -5.5t-116 42.5q-30 21 -52.5 51.5t-35.5 73.5t-21 79.5t-11.5 95.5t-4 93.5t-0.5 98.5v356h-178v-451zM252 1092 v145l459 195v-146z" />
<glyph unicode="&#xfb;" horiz-adv-x="983" d="M88 573q0 -51 1.5 -90.5t7.5 -93.5t16.5 -96.5t30 -90t46 -83.5t67 -67.5t91.5 -51.5q131 -47 280 -20t265 112v932h-178v-848q-35 -24 -88.5 -37t-119.5 -5.5t-116 42.5q-30 21 -52.5 51.5t-35.5 73.5t-21 79.5t-11.5 95.5t-4 93.5t-0.5 98.5v356h-178v-451zM92 1116 v146l397 174l398 -174v-146l-398 174z" />
<glyph unicode="&#xfc;" horiz-adv-x="983" d="M88 573v451h178v-356q0 -64 0.5 -98.5t4 -93.5t11.5 -95.5t21 -79.5t35.5 -73.5t52.5 -51.5q50 -35 116 -42.5t119.5 5.5t88.5 37v848h178v-932q-116 -85 -265 -112t-280 20q-51 20 -91.5 51.5t-67 67.5t-46 83.5t-30 90t-16.5 96.5t-7.5 93.5t-1.5 90.5zM233 1139v176 h177v-176h-177zM586 1139v176h176v-176h-176z" />
<glyph unicode="&#xfd;" horiz-adv-x="1034" d="M23 1024l389 -997q-8 -21 -23 -63.5t-24 -65.5q-31 -79 -66 -119q-59 -66 -143 -80v-150q167 4 258 84q24 21 45 53.5t31.5 56.5t29.5 69l492 1212h-197l-303 -745l-291 745h-198zM272 1092v145l459 195v-146z" />
<glyph unicode="&#xff;" horiz-adv-x="1034" d="M23 1024h198l291 -745l303 745h197l-492 -1212q-19 -45 -29.5 -69t-31.5 -56.5t-45 -53.5q-91 -80 -258 -84v150q84 14 143 80q35 40 66 119q9 23 24 65.5t23 63.5zM248 1139v176h176v-176h-176zM600 1139v176h176v-176h-176z" />
<glyph unicode="&#x152;" horiz-adv-x="1808" d="M70 733q0 112 24 215.5t73 192t118.5 154t166.5 102.5t210 37h2h1005v-162h-620q167 -177 190 -432h358v-162h-354q-12 -317 -194 -516h671v-162h-1056h-2q-125 0 -226.5 43.5t-168.5 115t-112.5 167.5t-65 197.5t-19.5 209.5zM248 733q0 -78 14 -156t46.5 -153.5 t79 -133t117.5 -93t157 -35.5q130 0 223 76.5t137.5 203.5t44.5 291q0 81 -14.5 157t-46 146t-78 122t-115 83t-151.5 31q-100 0 -181.5 -51t-130.5 -132t-75.5 -173.5t-26.5 -182.5z" />
<glyph unicode="&#x153;" horiz-adv-x="1789" d="M57 514q0 245 128.5 391t334.5 146q126 0 224 -56t159 -157q63 98 160 155.5t217 57.5q145 0 260.5 -74t166.5 -190.5t22 -237.5q-16 -66 -102.5 -111.5t-194.5 -60.5q-99 -13 -216 -5.5t-223 31.5q11 -50 38.5 -101t83.5 -99t126 -64q166 -39 336 51q22 -25 86 -108 q-68 -52 -169.5 -84.5t-197.5 -32.5q-120 0 -226.5 59t-174.5 156q-59 -100 -155 -157.5t-220 -57.5q-141 0 -248 76t-161 200t-54 273zM236 512q0 -93 31.5 -179t98.5 -146t154 -60q90 0 156 55.5t97.5 141.5t31.5 188q0 96 -31 180t-98 140.5t-156 56.5t-155.5 -56.5 t-97.5 -140.5t-31 -180zM987 578q85 -28 189.5 -40t189.5 -6q74 6 136 39.5t59 81.5q-5 94 -84.5 165t-192.5 71q-119 0 -200.5 -90.5t-96.5 -220.5z" />
<glyph unicode="&#x178;" horiz-adv-x="1202" d="M10 1434h193l393 -686l385 686h190l-485 -834v-600h-178v596zM334 1536v176h176v-176h-176zM686 1536v176h176v-176h-176z" />
<glyph unicode="&#x2c6;" horiz-adv-x="976" d="M86 1116v146l397 174l398 -174v-146l-398 174z" />
<glyph unicode="&#x2dc;" d="M219 1161v135q40 30 68 37q58 18 120 1.5t138 -56.5q46 -25 78 -35t76.5 -4t93.5 37v-135q-55 -39 -121 -39q-32 0 -68.5 11t-57 20t-65.5 32q-39 20 -75.5 30.5t-62.5 10t-49 -5t-36.5 -13.5t-25 -15.5t-13.5 -10.5z" />
<glyph unicode="&#x2000;" horiz-adv-x="930" />
<glyph unicode="&#x2001;" horiz-adv-x="1860" />
<glyph unicode="&#x2002;" horiz-adv-x="930" />
<glyph unicode="&#x2003;" horiz-adv-x="1860" />
<glyph unicode="&#x2004;" horiz-adv-x="620" />
<glyph unicode="&#x2005;" horiz-adv-x="465" />
<glyph unicode="&#x2006;" horiz-adv-x="310" />
<glyph unicode="&#x2007;" horiz-adv-x="310" />
<glyph unicode="&#x2008;" horiz-adv-x="232" />
<glyph unicode="&#x2009;" horiz-adv-x="372" />
<glyph unicode="&#x200a;" horiz-adv-x="103" />
<glyph unicode="&#x2010;" horiz-adv-x="811" d="M88 664v159h637v-159h-637z" />
<glyph unicode="&#x2011;" horiz-adv-x="811" d="M88 664v159h637v-159h-637z" />
<glyph unicode="&#x2012;" horiz-adv-x="811" d="M88 664v159h637v-159h-637z" />
<glyph unicode="&#x2013;" d="M70 662v161h882v-161h-882z" />
<glyph unicode="&#x2014;" horiz-adv-x="2048" d="M70 662v161h1906v-161h-1906z" />
<glyph unicode="&#x2018;" horiz-adv-x="466" d="M66 1434h176l155 -344h-178z" />
<glyph unicode="&#x2019;" horiz-adv-x="438" d="M49 1090l156 344h176l-154 -344h-178z" />
<glyph unicode="&#x201a;" horiz-adv-x="403" d="M35 2l155 344h177l-154 -344h-178z" />
<glyph unicode="&#x201c;" horiz-adv-x="765" d="M35 1434h176l156 -344h-179zM385 1434h176l156 -344h-178z" />
<glyph unicode="&#x201d;" horiz-adv-x="761" d="M35 1090l155 344h177l-154 -344h-178zM385 1090l156 344h176l-154 -344h-178z" />
<glyph unicode="&#x201e;" horiz-adv-x="761" d="M35 2l155 344h177l-154 -344h-178zM385 2l156 344h176l-154 -344h-178z" />
<glyph unicode="&#x2022;" horiz-adv-x="552" d="M66 915l206 209l209 -209l-207 -206z" />
<glyph unicode="&#x2026;" horiz-adv-x="1171" d="M76 -16v215h203v-215h-203zM485 -16v215h203v-215h-203zM895 -16v215h203v-215h-203z" />
<glyph unicode="&#x202f;" horiz-adv-x="372" />
<glyph unicode="&#x2039;" horiz-adv-x="458" d="M16 618l220 406h186l-221 -412l215 -424h-180z" />
<glyph unicode="&#x203a;" horiz-adv-x="464" d="M37 1024h186l219 -406l-219 -430h-180l215 424z" />
<glyph unicode="&#x205f;" horiz-adv-x="465" />
<glyph unicode="&#x20ac;" horiz-adv-x="1314" d="M37 469v162h129q-2 20 -2 61q0 77 8 137h-135v162h170q64 210 204.5 341.5t338.5 131.5q91 0 166.5 -24t133 -70t101 -103t78.5 -132q-123 -63 -144 -72q-55 107 -136 173.5t-183 66.5q-135 0 -227.5 -86t-143.5 -226h420v-162h-463q-10 -78 -10 -137q0 -41 2 -61h471 v-162h-436q50 -146 152 -242t241 -96q120 0 208 72.5t138 181.5l146 -45q-61 -165 -188.5 -264t-299.5 -107q-114 -4 -213 36t-170.5 111t-122 160.5t-77.5 192.5h-156z" />
<glyph unicode="&#x2122;" horiz-adv-x="1589" d="M74 1313v121h567v-121h-213v-479h-141v479h-213zM588 834h143l125 403l137 -403h127l137 403l125 -403h144l-201 600h-139l-129 -402l-129 402h-140z" />
<glyph unicode="&#x25fc;" horiz-adv-x="1025" d="M0 0v1025h1025v-1025h-1025z" />
</font>
</defs>
</svg>
